<svg width="37" height="38" viewBox="0 0 37 38" fill="none" xmlns="http://www.w3.org/2000/svg">
<path fill-rule="evenodd" clip-rule="evenodd" d="M2.31348 9.4375V32.5625C2.31348 33.1758 2.55711 33.764 2.99079 34.1977C3.42447 34.6314 4.01266 34.875 4.62598 34.875H32.376C32.376 32.5625 33.5775 34.6314 34.0112 34.1977C34.4448 33.764 32.376 36.4462 32.376 35.8329L7.68848 35.8329L1.35561 34.1977L2.31348 9.4375ZM4.62598 2.5C3.39935 2.5 2.22296 2.98728 1.35561 3.85463C0.488252 4.72199 0.000976563 5.89837 0.000976562 7.125V32.5625C0.000976563 33.7891 0.488252 34.9655 1.35561 35.8329C2.22296 36.7002 3.39935 37.1875 4.62598 37.1875H32.376C33.6026 37.1875 34.779 36.7002 35.6463 35.8329C36.5137 34.9655 37.001 33.7891 37.001 32.5625V7.125C37.001 5.89837 36.5137 4.72199 35.6463 3.85463C34.779 2.98728 33.6026 2.5 32.376 2.5H4.62598Z" fill="white"/>
<path fill-rule="evenodd" clip-rule="evenodd" d="M8.09375 0C8.40041 0 8.6945 0.121819 8.91134 0.338658C9.12818 0.555497 9.25 0.849593 9.25 1.15625V2.3125C9.25 2.61916 9.12818 2.91325 8.91134 3.13009C8.6945 3.34693 8.40041 3.46875 8.09375 3.46875C7.78709 3.46875 7.493 3.34693 7.27616 3.13009C7.05932 2.91325 6.9375 2.61916 6.9375 2.3125V1.15625C6.9375 0.849593 7.05932 0.555497 7.27616 0.338658C7.493 0.121819 7.78709 0 8.09375 0V0ZM28.9062 0C29.2129 0 29.507 0.121819 29.7238 0.338658C29.9407 0.555497 30.0625 0.849593 30.0625 1.15625V2.3125C30.0625 2.61916 29.9407 2.91325 29.7238 3.13009C29.507 3.34693 29.2129 3.46875 28.9062 3.46875C28.5996 3.46875 28.3055 3.34693 28.0887 3.13009C27.8718 2.91325 27.75 2.61916 27.75 2.3125V1.15625C27.75 0.849593 27.8718 0.555497 28.0887 0.338658C28.3055 0.121819 28.5996 0 28.9062 0V0Z" fill="#333333"/>
<path d="M25.4375 15.0312C25.4375 14.7246 25.5593 14.4305 25.7762 14.2137C25.993 13.9968 26.2871 13.875 26.5938 13.875H28.9062C29.2129 13.875 29.507 13.9968 29.7238 14.2137C29.9407 14.4305 30.0625 14.7246 30.0625 15.0312V17.3438C30.0625 17.6504 29.9407 17.9445 29.7238 18.1613C29.507 18.3782 29.2129 18.5 28.9062 18.5H26.5938C26.2871 18.5 25.993 18.3782 25.7762 18.1613C25.5593 17.9445 25.4375 17.6504 25.4375 17.3438V15.0312ZM18.5 15.0312C18.5 14.7246 18.6218 14.4305 18.8387 14.2137C19.0555 13.9968 19.3496 13.875 19.6562 13.875H21.9688C22.2754 13.875 22.5695 13.9968 22.7863 14.2137C23.0032 14.4305 23.125 14.7246 23.125 15.0312V17.3438C23.125 17.6504 23.0032 17.9445 22.7863 18.1613C22.5695 18.3782 22.2754 18.5 21.9688 18.5H19.6562C19.3496 18.5 19.0555 18.3782 18.8387 18.1613C18.6218 17.9445 18.5 17.6504 18.5 17.3438V15.0312ZM6.9375 21.9688C6.9375 21.6621 7.05932 21.368 7.27616 21.1512C7.493 20.9343 7.78709 20.8125 8.09375 20.8125H10.4062C10.7129 20.8125 11.007 20.9343 11.2238 21.1512C11.4407 21.368 11.5625 21.6621 11.5625 21.9688V24.2812C11.5625 24.5879 11.4407 24.882 11.2238 25.0988C11.007 25.3157 10.7129 25.4375 10.4062 25.4375H8.09375C7.78709 25.4375 7.493 25.3157 7.27616 25.0988C7.05932 24.882 6.9375 24.5879 6.9375 24.2812V21.9688ZM13.875 21.9688C13.875 21.6621 13.9968 21.368 14.2137 21.1512C14.4305 20.9343 14.7246 20.8125 15.0312 20.8125H17.3438C17.6504 20.8125 17.9445 20.9343 18.1613 21.1512C18.3782 21.368 18.5 21.6621 18.5 21.9688V24.2812C18.5 24.5879 18.3782 24.882 18.1613 25.0988C17.9445 25.3157 17.6504 25.4375 17.3438 25.4375H15.0312C14.7246 25.4375 14.4305 25.3157 14.2137 25.0988C13.9968 24.882 13.875 24.5879 13.875 24.2812V21.9688Z" fill="#333333"/>
<path fill-rule="evenodd" clip-rule="evenodd" d="M2.3125 9.25V32.375C2.3125 32.9883 2.55614 33.5765 2.98982 34.0102C3.42349 34.4439 4.01169 34.6875 4.625 34.6875H32.375C32.9883 34.6875 33.5765 34.4439 34.0102 34.0102C34.4439 33.5765 34.6875 32.9883 34.6875 32.375V9.25H2.3125ZM4.625 2.3125C3.39837 2.3125 2.22199 2.79978 1.35463 3.66713C0.487275 4.53449 0 5.71087 0 6.9375L0 32.375C0 33.6016 0.487275 34.778 1.35463 35.6454C2.22199 36.5127 3.39837 37 4.625 37H32.375C33.6016 37 34.778 36.5127 35.6454 35.6454C36.5127 34.778 37 33.6016 37 32.375V6.9375C37 5.71087 36.5127 4.53449 35.6454 3.66713C34.778 2.79978 33.6016 2.3125 32.375 2.3125H4.625Z" fill="#333333"/>
</svg>
