<svg width="38" height="28" viewBox="0 0 38 28" fill="none" xmlns="http://www.w3.org/2000/svg">
<path d="M0 0H38V22.7797H36.575C36.575 19.3817 33.801 16.6102 30.4 16.6102C27.911 16.6102 25.802 18.1098 24.814 20.2359C24.339 20.0461 23.826 19.9322 23.275 19.9322C21.413 19.9322 19.855 21.1281 19.266 22.7797H0V0ZM15.903 5.90373C15.789 6.18847 15.713 6.4922 15.694 6.79593C15.675 7.09966 15.675 7.42237 15.713 7.74508L15.751 7.89695C15.77 8.01085 15.789 8.16271 15.846 8.33356C15.884 8.52339 15.96 8.71322 16.036 8.92203C16.093 9.13085 16.207 9.33966 16.321 9.54847C16.454 9.77627 16.606 9.9661 16.758 10.1369C16.91 10.3078 17.1 10.4597 17.347 10.5736C17.575 10.6875 17.822 10.7444 18.107 10.7444C18.373 10.7444 18.62 10.6875 18.848 10.5736C19.076 10.4597 19.266 10.3078 19.418 10.1559C19.589 9.98508 19.722 9.77627 19.836 9.54847C19.969 9.32068 20.064 9.11186 20.14 8.92203C20.216 8.7322 20.273 8.54237 20.311 8.33356C20.368 8.12475 20.387 7.99186 20.406 7.91593C20.425 7.84 20.425 7.78305 20.425 7.74508C20.52 7.19458 20.482 6.68203 20.349 6.18848C20.216 5.69492 19.95 5.27729 19.57 4.93559C19.171 4.5939 18.677 4.42305 18.069 4.42305C17.708 4.42305 17.385 4.48 17.081 4.61288C16.796 4.74576 16.549 4.91661 16.359 5.14441C16.188 5.35322 16.036 5.61898 15.903 5.90373ZM24.415 17.3695V15.2054C24.415 14.579 24.225 13.9525 23.864 13.3451C23.503 12.7376 23.009 12.2251 22.401 11.8454C21.793 11.4468 21.147 11.2569 20.463 11.2569L18.107 12.8515L15.675 11.2949C14.972 11.2949 14.307 11.4847 13.699 11.8644C13.11 12.2441 12.635 12.7376 12.293 13.3261C11.951 13.9336 11.78 14.56 11.78 15.2054V17.3695L12.122 17.4644C12.35 17.5403 12.673 17.6163 13.091 17.7302C13.528 17.8251 13.984 17.92 14.497 18.0149C14.991 18.1098 15.58 18.1858 16.226 18.2617C16.872 18.3186 17.499 18.3566 18.107 18.3566C18.677 18.3566 19.304 18.3186 19.969 18.2617C20.615 18.1858 21.185 18.1098 21.66 18.0149C22.135 17.939 22.61 17.8251 23.104 17.7112L24.054 17.4834C24.206 17.4454 24.32 17.4075 24.415 17.3695ZM30.4 17.5593C33.288 17.5593 35.625 19.8942 35.625 22.7797C35.625 25.6651 33.288 28 30.4 28C29.013 28 27.778 27.4305 26.847 26.5383C27.4661 25.6034 27.6897 24.4617 27.4689 23.3627C27.2482 22.2636 26.6011 21.2965 25.669 20.6725C26.486 18.8502 28.272 17.5593 30.4 17.5593ZM19.95 24.2034C19.95 22.381 21.451 20.8814 23.275 20.8814C25.099 20.8814 26.6 22.381 26.6 24.2034C26.6 26.0258 25.099 27.5254 23.275 27.5254C21.451 27.5254 19.95 26.0258 19.95 24.2034Z" fill="#BDBDBD"/>
</svg>
