<svg width="40" height="40" viewBox="0 0 40 40" fill="none" xmlns="http://www.w3.org/2000/svg">
<path d="M39.2969 39.2969C38.8281 39.7656 38.2682 40 37.6172 40C36.9661 40 36.4062 39.7656 35.9375 39.2969L18.3984 21.7578L14.2969 25.8594V25.8984C14.7656 26.3672 15 26.9336 15 27.5977C15 28.2617 14.7656 28.8281 14.2969 29.2969C13.8281 29.7656 13.2617 30 12.5977 30C11.9336 30 11.3672 29.7656 10.8984 29.2969L0.703125 19.1016C0.234375 18.6328 0 18.0664 0 17.4023C0 16.7383 0.234375 16.1719 0.703125 15.7031C1.17188 15.2344 1.73828 15 2.40234 15C3.06641 15 3.63281 15.2344 4.10156 15.7031L4.14062 15.7422L15.7422 4.14062L15.7031 4.10156C15.2344 3.63281 15 3.06641 15 2.40234C15 1.73828 15.2344 1.17188 15.7031 0.703125C16.1719 0.234375 16.7383 0 17.4023 0C18.0664 0 18.6328 0.234375 19.1016 0.703125L29.2969 10.8984C29.7656 11.3672 30 11.9336 30 12.5977C30 13.2617 29.7656 13.8281 29.2969 14.2969C28.8281 14.7656 28.2617 15 27.5977 15C26.9336 15 26.3672 14.7656 25.8984 14.2969L25.8594 14.2578L21.7578 18.3594L39.2969 35.9375C39.7656 36.4062 40 36.9661 40 37.6172C40 38.2682 39.7656 38.8281 39.2969 39.2969ZM13.1641 9.76562L9.80469 13.1641L16.875 20.2344L20.2344 16.875L13.1641 9.76562Z" fill="#333333"/>
</svg>
