<svg width="39" height="39" viewBox="0 0 39 39" fill="none" xmlns="http://www.w3.org/2000/svg">
<circle cx="19.001" cy="19" r="17" fill="white"/>
<path d="M19.25 8.25L17.2837 10.1654L24.9562 17.875H8.25V20.625H24.9562L17.2837 28.2879L19.25 30.25L30.25 19.25L19.25 8.25Z" fill="#333333"/>
<path d="M19.25 38.5C15.4427 38.5 11.7209 37.371 8.55528 35.2558C5.38963 33.1406 2.92231 30.1341 1.46533 26.6167C0.00834072 23.0992 -0.372873 19.2287 0.369892 15.4945C1.11266 11.7604 2.94604 8.33036 5.6382 5.6382C8.33036 2.94604 11.7604 1.11266 15.4945 0.369892C19.2287 -0.372873 23.0992 0.00834072 26.6167 1.46533C30.1341 2.92231 33.1406 5.38963 35.2558 8.55528C37.371 11.7209 38.5 15.4427 38.5 19.25C38.4942 24.3536 36.4642 29.2466 32.8554 32.8554C29.2466 36.4642 24.3536 38.4942 19.25 38.5ZM19.25 2.75001C15.9866 2.75001 12.7965 3.71772 10.0831 5.53076C7.36969 7.3438 5.25484 9.92075 4.006 12.9357C2.75715 15.9507 2.4304 19.2683 3.06705 22.469C3.70371 25.6697 5.27518 28.6097 7.58275 30.9173C9.89031 33.2248 12.8303 34.7963 16.031 35.433C19.2317 36.0696 22.5493 35.7429 25.5643 34.494C28.5793 33.2452 31.1562 31.1303 32.9693 28.4169C34.7823 25.7035 35.75 22.5134 35.75 19.25C35.7449 14.8755 34.0049 10.6816 30.9116 7.58837C27.8184 4.49513 23.6245 2.7551 19.25 2.75001Z" fill="#333333"/>
</svg>
