<svg width="1013" height="637" viewBox="0 0 1013 637" fill="none" xmlns="http://www.w3.org/2000/svg">
<g id="undraw_fill_forms_yltj 1" clip-path="url(#clip0)">
<path id="Vector" d="M378.793 266.434C378.793 266.434 461.793 270.434 466.793 299.434C471.793 328.434 369.793 302.434 369.793 302.434L378.793 266.434Z" fill="#A0616A"/>
<path id="Vector_2" d="M247.793 174.434C247.793 174.434 261.793 178.434 272.793 202.434C283.793 226.434 305.793 248.434 305.793 248.434L394.793 265.434L379.793 310.434L294.793 299.434L241.793 269.434L247.793 174.434Z" fill="#575A89"/>
<path id="Vector_3" opacity="0.1" d="M247.793 174.434C247.793 174.434 261.793 178.434 272.793 202.434C283.793 226.434 305.793 248.434 305.793 248.434L394.793 265.434L379.793 310.434L294.793 299.434L241.793 269.434L247.793 174.434Z" fill="black"/>
<path id="Vector_4" d="M115.793 128.434L124.793 185.434L186.793 188.434L179.793 104.434L115.793 128.434Z" fill="#A0616A"/>
<path id="Vector_5" d="M50.2931 508.934L47.2931 634.934H141.293L155.293 584.934L166.293 634.934H264.293C264.293 634.934 266.293 490.934 255.293 489.934C244.293 488.934 50.2931 508.934 50.2931 508.934Z" fill="#2F2E41"/>
<path id="Vector_6" d="M135.793 143.434C165.616 143.434 189.793 119.258 189.793 89.4343C189.793 59.611 165.616 35.4343 135.793 35.4343C105.97 35.4343 81.7931 59.611 81.7931 89.4343C81.7931 119.258 105.97 143.434 135.793 143.434Z" fill="#A0616A"/>
<path id="Vector_7" d="M44.7931 514.434L72.7931 376.434L35.7931 193.434L121.007 161.458L162.793 156.434L183.8 152.513L198.793 156.434C198.793 156.434 258.793 171.434 261.793 182.434C264.793 193.434 249.793 283.434 249.793 283.434L235.793 357.434L266.793 490.434C266.793 490.434 137.793 534.434 46.7931 514.434H44.7931Z" fill="#575A89"/>
<path id="Vector_8" opacity="0.1" d="M82.293 243.934V280.934L200.285 281.095L88.293 268.934L82.293 243.934Z" fill="black"/>
<path id="Vector_9" opacity="0.1" d="M72.159 346.12L220.293 324.934L72.159 366.89V346.12Z" fill="black"/>
<path id="Vector_10" opacity="0.1" d="M307.293 248.934L291.412 306.159L318.293 250.822L307.293 248.934Z" fill="black"/>
<path id="Vector_11" d="M180.234 35.2779L190.164 31.3025C190.164 31.3025 169.401 8.44377 140.514 10.4316L148.638 1.48677C148.638 1.48677 128.778 -6.46401 110.724 14.4069C101.233 25.3783 90.2515 38.2746 83.4059 52.8021H72.7715L77.2099 62.575L61.6754 72.3478L77.62 70.5924C76.6699 75.9442 76.5241 81.4078 77.1873 86.8026C77.8713 92.199 80.6252 97.1186 84.8677 100.523V100.523C84.8677 100.523 97.1828 75.0321 97.1828 71.0566V80.9952C97.1828 80.9952 107.113 72.0505 107.113 66.0874L112.529 73.0444L115.237 62.112L148.638 73.0444L143.222 64.0998L163.985 67.0813L155.86 56.1488C155.86 56.1488 179.331 69.069 180.234 80.0014C181.137 90.9338 188.007 101.293 188.007 101.293C188.007 101.293 206.413 50.1857 180.234 35.2779Z" fill="#2F2E41"/>
<path id="Vector_12" d="M617.293 234.934H233.293V635.934H617.293V234.934Z" fill="#D0CDE1"/>
<path id="Vector_13" d="M557.293 322.934H273.293V362.934H557.293V322.934Z" fill="#2E5299"/>
<path id="Vector_14" d="M508.111 428.934H322.116V448.934H508.111V428.934Z" fill="#2E5299"/>
<path id="Vector_15" d="M508.47 463.934H322.475V483.934H508.47V463.934Z" fill="#2E5299"/>
<path id="Vector_16" d="M415.832 498.934H322.834V518.934H415.832V498.934Z" fill="#2E5299"/>
<path id="Vector_17" d="M562.293 599.934H519.293V619.934H562.293V599.934Z" fill="#2E5299"/>
<path id="Vector_18" d="M205.793 285.434C205.793 285.434 292.793 272.434 305.793 291.434C318.793 310.434 213.793 320.434 213.793 320.434L205.793 285.434Z" fill="#A0616A"/>
<path id="Vector_19" d="M45.7931 192.434H39.5272C36.9501 192.427 34.4655 193.394 32.5714 195.141C26.6234 200.664 14.0468 214.916 8.79306 240.434C1.79306 274.434 -10.2069 340.434 16.7931 345.434C43.7931 350.434 220.793 326.434 220.793 326.434L207.793 280.434L79.7931 281.434C79.7931 281.434 81.7931 259.434 77.7931 245.434C73.7931 231.434 45.7931 192.434 45.7931 192.434Z" fill="#575A89"/>
</g>
<defs>
<clipPath id="clip0">
<rect width="1012.29" height="636.613" fill="white"/>
</clipPath>
</defs>
</svg>
