<svg width="376" height="340" viewBox="0 0 376 340" fill="none" xmlns="http://www.w3.org/2000/svg">
<path d="M329.88 215.41C330.273 213.52 330.947 211.7 331.88 210.01C332.333 209.254 332.907 208.578 333.58 208.01C333.874 207.781 334.22 207.628 334.587 207.564C334.954 207.5 335.331 207.527 335.685 207.643C336.04 207.758 336.36 207.959 336.619 208.227C336.878 208.495 337.067 208.822 337.17 209.18C338.08 212.68 337.79 216.48 337.47 220.12C337.437 221.296 337.197 222.457 336.76 223.55C335.41 226.41 330.43 227.69 328.51 224.61C327.08 222.24 329.28 217.77 329.88 215.41Z" fill="#FFDAD2"/>
<path d="M329.88 215.41C330.273 213.52 330.947 211.7 331.88 210.01C332.103 209.624 332.361 209.259 332.65 208.92C332.99 208.529 333.432 208.241 333.927 208.088C334.422 207.935 334.95 207.923 335.451 208.054C335.952 208.185 336.407 208.454 336.763 208.829C337.12 209.205 337.365 209.673 337.47 210.18C337.949 213.461 337.972 216.792 337.54 220.08C337.507 221.256 337.267 222.417 336.83 223.51C335.48 226.37 330.5 227.65 328.58 224.57C327.08 222.24 329.28 217.77 329.88 215.41Z" fill="url(#paint0_linear)"/>
<path d="M167.94 310.67C167.07 313.22 166.27 316.13 167.56 318.49C168.423 319.805 169.585 320.898 170.95 321.68L183.25 330.03C185.61 331.63 188.11 333.29 190.95 333.5C193.79 333.71 197 331.91 197.24 329.07C197.52 325.79 194.09 323.56 192.49 320.69C190.38 316.92 191.54 312.26 192.64 308.1C195.399 297.59 197.404 286.896 198.64 276.1C196.12 275.1 188.78 270.45 186.21 271.21C183.21 272.09 180.61 280.33 179.3 283.01C174.87 291.952 171.073 301.195 167.94 310.67V310.67Z" fill="#FFDAD2"/>
<path d="M219.17 105.78C221.81 104.21 224.52 102.62 227.53 102.03C230.54 101.44 233.98 102.03 236.04 104.31C233.493 104.456 231.009 105.158 228.763 106.367C226.517 107.577 224.564 109.264 223.04 111.31C222.884 111.577 222.64 111.782 222.35 111.89C222.106 111.916 221.859 111.871 221.64 111.76C220.4 111.29 215.23 110.76 214.69 109.7C213.89 107.94 218 106.47 219.17 105.78Z" fill="black"/>
<path d="M197.17 162.02C198.17 176.78 200.59 191.74 197.69 206.25C195.74 216.03 191.39 225.87 193.55 235.6C195.92 246.32 206.99 254.37 217.91 253.32C224.83 252.65 231.02 248.9 237.64 246.78C243.208 244.996 249.082 244.374 254.9 244.95C260.11 245.47 265.75 246.86 270.29 244.26C274.07 242.1 276.01 237.59 276.21 233.26C276.41 228.93 275.21 224.65 273.9 220.48C271.31 211.93 268.58 203.2 268.9 194.27C269.16 187.86 271.01 181.64 272.32 175.36C274.68 164.1 275.32 152.11 271.25 141.36C267.18 130.61 257.84 121.36 246.42 119.91C240.54 119.19 234.55 120.53 228.69 119.7C223.52 118.97 218.69 116.58 213.6 115.54C211.828 115.076 209.964 115.093 208.2 115.59C202.06 117.72 199.14 131 198.08 136.48C196.45 144.85 196.53 153.51 197.17 162.02Z" fill="#FE8311"/>
<path d="M191.52 240.18C188.34 249.24 184.95 258.33 179.84 266.47C179.74 266.579 179.666 266.709 179.622 266.85C179.579 266.992 179.567 267.141 179.588 267.287C179.609 267.433 179.663 267.573 179.744 267.696C179.826 267.82 179.934 267.923 180.06 268C185.2 272.5 190.75 277.19 197.51 278.16C197.951 278.261 198.412 278.223 198.83 278.05C199.222 277.773 199.513 277.377 199.66 276.92C203.97 266.92 205.48 255.99 205.35 245.17C205.254 239.769 204.826 234.379 204.07 229.03C203.89 227.72 203.79 221.95 202.66 221.28C200.93 220.28 199.04 223.8 198.3 224.92C195.17 229.54 193.36 234.91 191.52 240.18Z" fill="#2E5299"/>
<path d="M191.52 240.18C188.34 249.24 184.95 258.33 179.84 266.47C179.74 266.579 179.666 266.709 179.622 266.85C179.579 266.992 179.567 267.141 179.588 267.287C179.609 267.433 179.663 267.573 179.744 267.696C179.826 267.82 179.934 267.923 180.06 268C185.2 272.5 190.75 277.19 197.51 278.16C197.951 278.261 198.412 278.223 198.83 278.05C199.222 277.773 199.513 277.377 199.66 276.92C203.97 266.92 205.48 255.99 205.35 245.17C205.254 239.769 204.826 234.379 204.07 229.03C203.89 227.72 203.79 221.95 202.66 221.28C200.93 220.28 199.04 223.8 198.3 224.92C195.17 229.54 193.36 234.91 191.52 240.18Z" fill="url(#paint1_linear)"/>
<path d="M205.29 162.02C206.01 176.78 207.7 191.74 205.66 206.25C204.28 216.03 201.21 225.87 202.73 235.6C204.41 246.32 212.21 254.37 219.91 253.32C224.78 252.65 229.14 248.9 233.81 246.78C237.607 245.015 241.832 244.38 245.98 244.95C249.65 245.47 253.62 246.86 256.82 244.26C259.48 242.1 260.82 237.59 261 233.26C260.977 228.95 260.429 224.658 259.37 220.48C257.54 211.93 255.61 203.2 255.87 194.27C256.05 187.86 257.35 181.64 258.28 175.36C259.94 164.1 260.37 152.11 257.53 141.36C254.69 130.61 248.07 121.36 240.02 119.91C235.89 119.19 231.66 120.53 227.53 119.7C223.89 118.97 220.53 116.58 216.89 115.54C215.663 115.076 214.305 115.093 213.09 115.59C208.76 117.72 206.71 131 205.96 136.48C204.959 144.955 204.734 153.504 205.29 162.02V162.02Z" fill="url(#paint2_linear)"/>
<path d="M239.76 211.23C246.336 210.857 252.929 211.498 259.31 213.13C265.64 214.92 271.65 218.28 275.8 223.38C280.4 229.03 282.41 236.38 282.88 243.68C283.35 250.98 282.38 258.22 281.65 265.47C279.941 282.447 279.489 299.527 280.3 316.57C280.5 320.65 280.57 325.26 277.7 328.17C275.89 330.01 273.26 330.75 270.75 331.35C249.99 336.35 227.49 337.22 207.83 328.89C202.83 326.77 197.83 323.82 195.36 319C192.68 313.76 193.55 307.5 194.41 301.68C197.037 283.92 198.927 266.073 200.08 248.14C200.59 240.2 200 231.64 201.63 223.84C202.81 218.19 206.46 216.64 211.72 215.26C220.886 212.87 230.292 211.518 239.76 211.23V211.23Z" fill="#2E5299"/>
<path d="M239.76 211.23C246.336 210.857 252.929 211.498 259.31 213.13C265.64 214.92 271.65 218.28 275.8 223.38C280.4 229.03 282.41 236.38 282.88 243.68C283.35 250.98 282.38 258.22 281.65 265.47C279.941 282.447 279.489 299.527 280.3 316.57C280.5 320.65 280.57 325.26 277.7 328.17C275.89 330.01 273.26 330.75 270.75 331.35C249.99 336.35 227.49 337.22 207.83 328.89C202.83 326.77 197.83 323.82 195.36 319C192.68 313.76 193.55 307.5 194.41 301.68C197.037 283.92 198.927 266.073 200.08 248.14C200.59 240.2 200 231.64 201.63 223.84C202.81 218.19 206.46 216.64 211.72 215.26C220.886 212.87 230.292 211.518 239.76 211.23V211.23Z" fill="url(#paint3_linear)"/>
<path d="M220.61 214.49C220.906 213.023 221.287 211.574 221.75 210.15V210.15C222.75 206.86 224 203.65 223.87 200.15C223.87 199.43 223.81 198.69 223.8 197.96C223.742 196.641 223.943 195.323 224.39 194.08C225.115 192.477 226.254 191.096 227.69 190.08C230.87 187.62 240.15 183.01 241.98 189.08C242.273 190.148 242.411 191.253 242.39 192.36V192.56C242.39 194.18 242.18 195.84 242.16 197.36C241.959 201.175 242.644 204.984 244.16 208.49C246.85 214.09 216.06 239.12 220.61 214.49Z" fill="#FFDAD2"/>
<path d="M242.48 192.4L242.39 192.62C241.44 194.79 233.63 212.06 223.03 211.62C223.03 211.62 222.22 211.69 221.75 210.17C222.75 206.88 224 203.67 223.87 200.17C223.87 199.45 223.81 198.71 223.8 197.98L242.39 192.42L242.48 192.4Z" fill="url(#paint4_linear)"/>
<path d="M197.86 175.57C203.383 175.57 207.86 170.05 207.86 163.24C207.86 156.43 203.383 150.91 197.86 150.91C192.337 150.91 187.86 156.43 187.86 163.24C187.86 170.05 192.337 175.57 197.86 175.57Z" fill="#2E5299"/>
<path d="M197.86 175.57C203.383 175.57 207.86 170.05 207.86 163.24C207.86 156.43 203.383 150.91 197.86 150.91C192.337 150.91 187.86 156.43 187.86 163.24C187.86 170.05 192.337 175.57 197.86 175.57Z" fill="url(#paint5_linear)"/>
<path d="M201.69 175.57C207.213 175.57 211.69 170.05 211.69 163.24C211.69 156.43 207.213 150.91 201.69 150.91C196.167 150.91 191.69 156.43 191.69 163.24C191.69 170.05 196.167 175.57 201.69 175.57Z" fill="#2E5299"/>
<path d="M201.69 175.57C207.213 175.57 211.69 170.05 211.69 163.24C211.69 156.43 207.213 150.91 201.69 150.91C196.167 150.91 191.69 156.43 191.69 163.24C191.69 170.05 196.167 175.57 201.69 175.57Z" fill="url(#paint6_linear)"/>
<path d="M199.09 138.18L201.59 183.18C201.59 183.18 202.71 200.47 219.84 200.64C240.42 200.84 246.69 188.87 249.84 179.76C252.99 170.65 255.84 143.91 249.84 136.51C243.84 129.11 210.36 111.74 199.09 138.18Z" fill="#FFDAD2"/>
<path d="M195.42 116.31C189.25 123.12 187.09 132.91 188.02 142.06C188.061 143.837 188.64 145.559 189.68 147C190.944 148.222 192.517 149.076 194.23 149.47C197.15 150.47 200.23 151.39 203.23 150.82C206.23 150.25 209.11 147.56 208.72 144.51C207.83 146.26 208.82 148.51 210.4 149.65C212.078 150.684 213.976 151.307 215.94 151.47L226.02 153.11L227.78 146.31C227.567 147.89 227.801 149.497 228.457 150.95C229.113 152.402 230.164 153.642 231.489 154.527C232.815 155.411 234.362 155.906 235.955 155.954C237.548 156.003 239.123 155.603 240.5 154.8C241.08 156.8 243.57 157.72 245.63 157.36C247.69 157 249.47 155.73 251.28 154.68C256.451 151.645 262.437 150.293 268.41 150.81C270.52 136.81 261.34 121.92 247.86 117.54C244.54 116.46 241.07 115.97 237.67 115.19C223.17 111.86 207.9 102.53 195.42 116.31Z" fill="#FE8311"/>
<path d="M259.27 175.57C264.793 175.57 269.27 170.05 269.27 163.24C269.27 156.43 264.793 150.91 259.27 150.91C253.747 150.91 249.27 156.43 249.27 163.24C249.27 170.05 253.747 175.57 259.27 175.57Z" fill="#2E5299"/>
<path d="M259.27 175.57C264.793 175.57 269.27 170.05 269.27 163.24C269.27 156.43 264.793 150.91 259.27 150.91C253.747 150.91 249.27 156.43 249.27 163.24C249.27 170.05 253.747 175.57 259.27 175.57Z" fill="url(#paint7_linear)"/>
<path d="M263.1 175.57C268.623 175.57 273.1 170.05 273.1 163.24C273.1 156.43 268.623 150.91 263.1 150.91C257.577 150.91 253.1 156.43 253.1 163.24C253.1 170.05 257.577 175.57 263.1 175.57Z" fill="#2E5299"/>
<path d="M263.1 175.57C268.623 175.57 273.1 170.05 273.1 163.24C273.1 156.43 268.623 150.91 263.1 150.91C257.577 150.91 253.1 156.43 253.1 163.24C253.1 170.05 257.577 175.57 263.1 175.57Z" fill="url(#paint8_linear)"/>
<path d="M257.41 151.69L252.22 124.69C249.22 113.42 241.47 104.97 231.95 102.52L229.75 101.96L233.82 101.67C244.04 100.94 253.44 108.48 256.93 120.2L264.03 151.02L257.41 151.69Z" fill="#2E5299"/>
<path d="M257.41 151.69L252.22 124.69C249.22 113.42 241.47 104.97 231.95 102.52L229.75 101.96L233.82 101.67C244.04 100.94 253.44 108.48 256.93 120.2L264.03 151.02L257.41 151.69Z" fill="url(#paint9_linear)"/>
<path d="M234.48 242.55C239.35 237.41 242.93 231.2 246.48 225.06C248.63 221.31 250.84 217.4 251.14 213.06C251.211 212.569 251.134 212.068 250.92 211.62C250.702 211.315 250.423 211.06 250.1 210.87L243.41 206.29C243.29 210.4 240.34 213.93 236.97 216.29C233.38 218.82 223.21 221.59 225.37 226.84C225.9 228.24 233.91 243.18 234.48 242.55Z" fill="#2E5299"/>
<path d="M216.37 212.11C214.99 214.103 214.008 216.344 213.48 218.71C211.8 225.36 212.12 232.33 212.48 239.18C212.48 239.6 212.59 240.11 212.98 240.24C213.199 240.294 213.43 240.265 213.63 240.16C215.158 239.345 216.411 238.096 217.23 236.57C219.683 232.836 221.93 228.97 223.96 224.99C224.2 224.592 224.343 224.143 224.38 223.68C224.256 222.935 223.882 222.255 223.32 221.75C221.09 219.05 220.95 215.75 221.37 212.34C221.5 211.28 222.54 209.34 221.16 208.84C220.02 208.42 216.9 211.39 216.37 212.11Z" fill="#2E5299"/>
<path d="M284.33 278.95C281.79 280.61 278.28 279.67 275.47 279.59C271.85 279.48 270.32 279.79 271.12 283.44C273.12 292.55 275.27 301.44 278.77 310.14C280.052 313.626 281.805 316.92 283.98 319.93C285.668 322.321 288.08 324.105 290.86 325.02C294.45 326.02 298.35 324.75 301.37 322.57C304.39 320.39 306.67 317.38 308.9 314.4C316.9 303.71 318.9 291.12 323.98 278.68C329.19 265.76 336.29 253.02 338.42 239.35C338.94 236.06 339.28 232.21 336.91 229.86C334.54 227.51 330.06 228.05 327.38 230.29C324.7 232.53 323.3 235.89 321.95 239.11C315.88 253.59 309.06 267.75 302.24 281.89C302.069 282.406 301.713 282.841 301.24 283.11C300.984 283.178 300.715 283.186 300.455 283.134C300.195 283.082 299.951 282.971 299.74 282.81C297.23 281.2 296.46 277.47 293.51 276.31C290.35 275.08 286.89 277.28 284.33 278.95Z" fill="#FFDAD2"/>
<path d="M299.59 285.01C289.95 287.33 279.26 289.52 270.59 284.77C269.107 284.059 267.853 282.947 266.97 281.56C265.97 279.79 265.97 277.64 265.91 275.56C265.49 266.17 261.91 257.19 261.06 247.83C259.77 233.09 254.12 210.37 273.7 219.02C284.52 223.8 295.95 246.77 298.27 256.4C298.92 259.26 303.08 284.18 299.59 285.01Z" fill="#2E5299"/>
<path d="M299.59 285.01C289.95 287.33 279.26 289.52 270.59 284.77C269.107 284.059 267.853 282.947 266.97 281.56C265.97 279.79 265.97 277.64 265.91 275.56C265.49 266.17 261.91 257.19 261.06 247.83C259.77 233.09 254.12 210.37 273.7 219.02C284.52 223.8 295.95 246.77 298.27 256.4C298.92 259.26 303.08 284.18 299.59 285.01Z" fill="url(#paint10_linear)"/>
<path d="M321.08 218.63C318.677 220.966 317.269 224.14 317.15 227.49C316.96 230.59 317.62 233.71 317.15 236.78C316.8 239.21 315.77 241.6 316.15 244.03C316.226 244.773 316.534 245.472 317.03 246.03C317.607 246.532 318.291 246.894 319.03 247.09C322.38 248.24 325.85 249.35 329.39 249.2C332.93 249.05 336.61 247.38 338.23 244.2C339.099 242.147 339.512 239.929 339.44 237.7L339.67 231.62C339.923 228.879 339.741 226.114 339.13 223.43C338.811 222.09 338.186 220.842 337.302 219.785C336.419 218.729 335.302 217.891 334.04 217.34C329.91 215.86 324.53 215.51 321.08 218.63Z" fill="#FFDAD2"/>
<path d="M239.74 195.53C235.714 195.442 231.722 194.769 227.89 193.53C227.645 193.483 227.412 193.386 227.206 193.244C227.001 193.102 226.828 192.919 226.697 192.706C226.567 192.493 226.482 192.255 226.449 192.008C226.416 191.76 226.436 191.509 226.506 191.269C226.576 191.029 226.695 190.807 226.856 190.616C227.017 190.426 227.217 190.271 227.441 190.162C227.666 190.052 227.911 189.991 228.16 189.983C228.41 189.974 228.658 190.017 228.89 190.11C238.06 192.87 244.97 192.5 249.41 189.02C255.41 184.31 255.03 175.33 255.03 175.24C255.016 175.005 255.05 174.77 255.127 174.549C255.205 174.327 255.326 174.123 255.483 173.948C255.64 173.773 255.831 173.631 256.043 173.53C256.255 173.429 256.485 173.372 256.72 173.36C257.192 173.338 257.653 173.504 258.003 173.82C258.353 174.137 258.564 174.579 258.59 175.05C258.59 175.5 259.07 185.99 251.59 191.83C248.52 194.31 244.54 195.53 239.74 195.53Z" fill="url(#paint11_linear)"/>
<path d="M228.82 187.18C229.84 187.69 230.64 188.554 231.07 189.61C231.47 191.13 230.29 192.61 229.07 193.61C228.034 194.55 226.756 195.18 225.38 195.43C223.38 195.67 221.44 194.59 219.77 193.43C218.831 192.865 218.031 192.096 217.43 191.18C215.88 188.45 217.88 184.96 220.52 183.79C223.42 182.4 226.53 185.62 228.82 187.18Z" fill="url(#paint12_linear)"/>
<path d="M263.7 323.7H119.68C115.643 323.7 112.37 326.973 112.37 331.01V331.02C112.37 335.057 115.643 338.33 119.68 338.33H263.7C267.737 338.33 271.01 335.057 271.01 331.02V331.01C271.01 326.973 267.737 323.7 263.7 323.7Z" fill="#2E5299"/>
<path d="M263.7 323.7H119.68C115.643 323.7 112.37 326.973 112.37 331.01V331.02C112.37 335.057 115.643 338.33 119.68 338.33H263.7C267.737 338.33 271.01 335.057 271.01 331.02V331.01C271.01 326.973 267.737 323.7 263.7 323.7Z" fill="url(#paint13_linear)"/>
<path d="M213.77 338.34H103.24L74.09 264.41C73.7037 263.428 73.5621 262.367 73.6776 261.319C73.7931 260.27 74.1621 259.265 74.7527 258.391C75.3434 257.517 76.138 256.799 77.0679 256.301C77.9978 255.802 79.035 255.538 80.09 255.53H166.87C171.07 255.529 175.174 256.792 178.647 259.155C182.119 261.518 184.8 264.872 186.34 268.78L213.77 338.34Z" fill="#2E5299"/>
<path d="M208.17 338.42H103.17L75.49 268.18C75.1192 267.245 74.9832 266.233 75.0938 265.233C75.2045 264.232 75.5584 263.275 76.1247 262.443C76.691 261.611 77.4525 260.931 78.3424 260.462C79.2324 259.992 80.2238 259.748 81.23 259.75H163.61C167.598 259.75 171.494 260.95 174.792 263.194C178.089 265.437 180.635 268.62 182.1 272.33L208.17 338.42Z" fill="#2E5299"/>
<path d="M208.17 338.42H103.17L75.49 268.18C75.1192 267.245 74.9832 266.233 75.0938 265.233C75.2045 264.232 75.5584 263.275 76.1247 262.443C76.691 261.611 77.4525 260.931 78.3424 260.462C79.2324 259.992 80.2238 259.748 81.23 259.75H163.61C167.598 259.75 171.494 260.95 174.792 263.194C178.089 265.437 180.635 268.62 182.1 272.33L208.17 338.42Z" fill="url(#paint14_linear)"/>
<defs>
<linearGradient id="paint0_linear" x1="323.65" y1="221.27" x2="340.64" y2="214.23" gradientUnits="userSpaceOnUse">
<stop offset="0.01"/>
<stop offset="0.09" stop-opacity="0.82"/>
<stop offset="1" stop-opacity="0"/>
</linearGradient>
<linearGradient id="paint1_linear" x1="170.88" y1="242.95" x2="231.92" y2="257.04" gradientUnits="userSpaceOnUse">
<stop offset="0.01"/>
<stop offset="0.12" stop-opacity="0.75"/>
<stop offset="1" stop-opacity="0"/>
</linearGradient>
<linearGradient id="paint2_linear" x1="14737.4" y1="21967.3" x2="12795.4" y2="37723.6" gradientUnits="userSpaceOnUse">
<stop offset="0.01"/>
<stop offset="0.09" stop-opacity="0.82"/>
<stop offset="1" stop-opacity="0"/>
</linearGradient>
<linearGradient id="paint3_linear" x1="32005.1" y1="39632.6" x2="10051.2" y2="33228.4" gradientUnits="userSpaceOnUse">
<stop offset="0.01"/>
<stop offset="0.12" stop-opacity="0.75"/>
<stop offset="1" stop-opacity="0"/>
</linearGradient>
<linearGradient id="paint4_linear" x1="5171.66" y1="3899.61" x2="5452.73" y2="4458.99" gradientUnits="userSpaceOnUse">
<stop offset="0.01"/>
<stop offset="0.09" stop-opacity="0.82"/>
<stop offset="1" stop-opacity="0"/>
</linearGradient>
<linearGradient id="paint5_linear" x1="3968.86" y1="4024.5" x2="4325.74" y2="4226.78" gradientUnits="userSpaceOnUse">
<stop offset="0.01"/>
<stop offset="0.09" stop-opacity="0.82"/>
<stop offset="1" stop-opacity="0"/>
</linearGradient>
<linearGradient id="paint6_linear" x1="4432.09" y1="3879.75" x2="3705.43" y2="4565.64" gradientUnits="userSpaceOnUse">
<stop offset="0.01"/>
<stop offset="0.09" stop-opacity="0.82"/>
<stop offset="1" stop-opacity="0"/>
</linearGradient>
<linearGradient id="paint7_linear" x1="5492.07" y1="4064.7" x2="5161.56" y2="4487.69" gradientUnits="userSpaceOnUse">
<stop offset="0.01"/>
<stop offset="0.09" stop-opacity="0.82"/>
<stop offset="1" stop-opacity="0"/>
</linearGradient>
<linearGradient id="paint8_linear" x1="5810.5" y1="3957.18" x2="4310.76" y2="4688.73" gradientUnits="userSpaceOnUse">
<stop offset="0.01"/>
<stop offset="0.09" stop-opacity="0.82"/>
<stop offset="1" stop-opacity="0"/>
</linearGradient>
<linearGradient id="paint9_linear" x1="9818.2" y1="6490.39" x2="8320.75" y2="6579.22" gradientUnits="userSpaceOnUse">
<stop offset="0.01"/>
<stop offset="0.09" stop-opacity="0.82"/>
<stop offset="1" stop-opacity="0"/>
</linearGradient>
<linearGradient id="paint10_linear" x1="12951" y1="17960.6" x2="10509.6" y2="18293.6" gradientUnits="userSpaceOnUse">
<stop offset="0.01"/>
<stop offset="0.12" stop-opacity="0.75"/>
<stop offset="1" stop-opacity="0"/>
</linearGradient>
<linearGradient id="paint11_linear" x1="238.29" y1="174.6" x2="247.47" y2="193.47" gradientUnits="userSpaceOnUse">
<stop offset="0.02" stop-color="white" stop-opacity="0"/>
<stop offset="0.58" stop-color="white" stop-opacity="0.39"/>
<stop offset="0.68" stop-color="white" stop-opacity="0.68"/>
<stop offset="1" stop-color="white"/>
</linearGradient>
<linearGradient id="paint12_linear" x1="228.51" y1="180.28" x2="217.44" y2="202.59" gradientUnits="userSpaceOnUse">
<stop offset="0.01"/>
<stop offset="1" stop-opacity="0"/>
</linearGradient>
<linearGradient id="paint13_linear" x1="-1.23542e+06" y1="5412.55" x2="-1.23542e+06" y2="4965.83" gradientUnits="userSpaceOnUse">
<stop offset="0.01"/>
<stop offset="0.12" stop-opacity="0.75"/>
<stop offset="1" stop-opacity="0"/>
</linearGradient>
<linearGradient id="paint14_linear" x1="-1.04172e+06" y1="29121.4" x2="-1.04193e+06" y2="20089.6" gradientUnits="userSpaceOnUse">
<stop offset="0.01"/>
<stop offset="0.12" stop-opacity="0.75"/>
<stop offset="1" stop-opacity="0"/>
</linearGradient>
</defs>
</svg>
