<svg width="38" height="37" viewBox="0 0 38 37" fill="none" xmlns="http://www.w3.org/2000/svg">
<path d="M25.9512 3.7C25.9512 1.6465 27.601 0 29.6585 0C31.7161 0 33.3659 1.6465 33.3659 3.7C33.3659 5.7535 31.7161 7.4 29.6585 7.4C27.601 7.4 25.9512 5.7535 25.9512 3.7ZM33.3659 37V25.9H38L33.2917 11.7845C33.0437 11.0477 32.5706 10.4069 31.9389 9.9523C31.3072 9.49769 30.5486 9.25208 29.7698 9.25H29.5473C28.7678 9.24929 28.0079 9.49382 27.3757 9.94882C26.7434 10.4038 26.2709 11.0461 26.0254 11.7845L24.4312 16.5575C26.4332 17.6675 27.8049 19.758 27.8049 22.2V37H33.3659ZM19.4634 17.575C21.002 17.575 22.2439 16.3355 22.2439 14.8C22.2439 13.2645 21.002 12.025 19.4634 12.025C17.9249 12.025 16.6829 13.2645 16.6829 14.8C16.6829 16.3355 17.9249 17.575 19.4634 17.575ZM6.4878 7.4C8.54537 7.4 10.1951 5.7535 10.1951 3.7C10.1951 1.6465 8.54537 0 6.4878 0C4.43024 0 2.78049 1.6465 2.78049 3.7C2.78049 5.7535 4.43024 7.4 6.4878 7.4ZM10.1951 37V24.05H12.9756V12.95C12.9756 10.915 11.3073 9.25 9.26829 9.25H3.70732C1.66829 9.25 0 10.915 0 12.95V24.05H2.78049V37H10.1951ZM22.2439 37V29.6H24.0976V22.2C24.0976 20.683 22.8371 19.425 21.3171 19.425H17.6098C16.0898 19.425 14.8293 20.683 14.8293 22.2V29.6H16.6829V37H22.2439Z" fill="#BDBDBD"/>
</svg>
