<svg width="41" height="47" viewBox="0 0 41 47" fill="none" xmlns="http://www.w3.org/2000/svg">
<path d="M38.0714 46.7887H2.92857C2.13542 46.7887 1.44903 46.5089 0.86942 45.9494C0.289807 45.3899 0 44.7019 0 43.8853V3.23763C0 2.45129 0.289807 1.77081 0.86942 1.19618C1.44903 0.621544 2.13542 0.334229 2.92857 0.334229H38.0714C38.8951 0.334229 39.5891 0.621544 40.1535 1.19618C40.7178 1.77081 41 2.45129 41 3.23763V43.8853C41 44.7019 40.7178 45.3899 40.1535 45.9494C39.5891 46.5089 38.8951 46.7887 38.0714 46.7887ZM19.0357 38.0785H21.9643C22.3609 38.0785 22.7041 37.9348 22.9939 37.6475C23.2837 37.3602 23.4286 37.0199 23.4286 36.6268C23.4286 36.2336 23.2837 35.8934 22.9939 35.606C22.7041 35.3187 22.3609 35.1751 21.9643 35.1751H19.0357C18.6391 35.1751 18.2959 35.3187 18.0061 35.606C17.7163 35.8934 17.5714 36.2336 17.5714 36.6268C17.5714 37.0199 17.7163 37.3602 18.0061 37.6475C18.2959 37.9348 18.6391 38.0785 19.0357 38.0785ZM7.32143 38.0785H13.1786C13.5751 38.0785 13.9183 37.9348 14.2081 37.6475C14.498 37.3602 14.6429 37.0199 14.6429 36.6268C14.6429 36.2336 14.498 35.8934 14.2081 35.606C13.9183 35.3187 13.5751 35.1751 13.1786 35.1751H7.32143C6.92485 35.1751 6.58166 35.3187 6.29185 35.606C6.00205 35.8934 5.85714 36.2336 5.85714 36.6268C5.85714 37.0199 6.00205 37.3602 6.29185 37.6475C6.58166 37.9348 6.92485 38.0785 7.32143 38.0785ZM7.32143 29.3683H21.9643C22.3609 29.3683 22.7041 29.2246 22.9939 28.9373C23.2837 28.65 23.4286 28.3097 23.4286 27.9166C23.4286 27.5234 23.2837 27.1831 22.9939 26.8958C22.7041 26.6085 22.3609 26.4649 21.9643 26.4649H7.32143C6.92485 26.4649 6.58166 26.6085 6.29185 26.8958C6.00205 27.1831 5.85714 27.5234 5.85714 27.9166C5.85714 28.3097 6.00205 28.65 6.29185 28.9373C6.58166 29.2246 6.92485 29.3683 7.32143 29.3683ZM7.32143 20.658H13.1786C13.5751 20.658 13.9183 20.5144 14.2081 20.2271C14.498 19.9398 14.6429 19.5995 14.6429 19.2063C14.6429 18.8132 14.498 18.4729 14.2081 18.1856C13.9183 17.8983 13.5751 17.7546 13.1786 17.7546H7.32143C6.92485 17.7546 6.58166 17.8983 6.29185 18.1856C6.00205 18.4729 5.85714 18.8132 5.85714 19.2063C5.85714 19.5995 6.00205 19.9398 6.29185 20.2271C6.58166 20.5144 6.92485 20.658 7.32143 20.658ZM19.0357 9.04444H7.32143C6.92485 9.04444 6.58166 9.1881 6.29185 9.47541C6.00205 9.76273 5.85714 10.103 5.85714 10.4961C5.85714 10.8893 6.00205 11.2296 6.29185 11.5169C6.58166 11.8042 6.92485 11.9478 7.32143 11.9478H19.0357C19.4323 11.9478 19.7755 11.8042 20.0653 11.5169C20.3551 11.2296 20.5 10.8893 20.5 10.4961C20.5 10.103 20.3551 9.76273 20.0653 9.47541C19.7755 9.1881 19.4323 9.04444 19.0357 9.04444ZM33.6786 9.04444H24.8929C24.4963 9.04444 24.1531 9.1881 23.8633 9.47541C23.5735 9.76273 23.4286 10.103 23.4286 10.4961C23.4286 10.8893 23.5735 11.2296 23.8633 11.5169C24.1531 11.8042 24.4963 11.9478 24.8929 11.9478H33.6786C34.0751 11.9478 34.4183 11.8042 34.7081 11.5169C34.998 11.2296 35.1429 10.8893 35.1429 10.4961C35.1429 10.103 34.998 9.76273 34.7081 9.47541C34.4183 9.1881 34.0751 9.04444 33.6786 9.04444ZM33.6786 17.7546H19.0357C18.6391 17.7546 18.2959 17.8983 18.0061 18.1856C17.7163 18.4729 17.5714 18.8132 17.5714 19.2063C17.5714 19.5995 17.7163 19.9398 18.0061 20.2271C18.2959 20.5144 18.6391 20.658 19.0357 20.658H33.6786C34.0751 20.658 34.4183 20.5144 34.7081 20.2271C34.998 19.9398 35.1429 19.5995 35.1429 19.2063C35.1429 18.8132 34.998 18.4729 34.7081 18.1856C34.4183 17.8983 34.0751 17.7546 33.6786 17.7546ZM33.6786 26.4649H27.8214C27.4249 26.4649 27.0817 26.6085 26.7919 26.8958C26.502 27.1831 26.3571 27.5234 26.3571 27.9166C26.3571 28.3097 26.502 28.65 26.7919 28.9373C27.0817 29.2246 27.4249 29.3683 27.8214 29.3683H33.6786C34.0751 29.3683 34.4183 29.2246 34.7081 28.9373C34.998 28.65 35.1429 28.3097 35.1429 27.9166C35.1429 27.5234 34.998 27.1831 34.7081 26.8958C34.4183 26.6085 34.0751 26.4649 33.6786 26.4649ZM33.6786 35.1751H27.8214C27.4249 35.1751 27.0817 35.3187 26.7919 35.606C26.502 35.8934 26.3571 36.2336 26.3571 36.6268C26.3571 37.0199 26.502 37.3602 26.7919 37.6475C27.0817 37.9348 27.4249 38.0785 27.8214 38.0785H33.6786C34.0751 38.0785 34.4183 37.9348 34.7081 37.6475C34.998 37.3602 35.1429 37.0199 35.1429 36.6268C35.1429 36.2336 34.998 35.8934 34.7081 35.606C34.4183 35.3187 34.0751 35.1751 33.6786 35.1751Z" fill="#D7D7DB"/>
</svg>
