<svg width="32" height="37" viewBox="0 0 32 37" fill="none" xmlns="http://www.w3.org/2000/svg">
<path d="M31.52 26.457C29.5423 24.3405 27.1424 22.6515 24.4713 21.4963C21.8002 20.341 18.9159 19.7446 16 19.7446C13.0841 19.7446 10.1998 20.341 7.52869 21.4963C4.85761 22.6515 2.45766 24.3405 0.48 26.457C0.174667 26.7905 0.00386743 27.2231 0 27.6727V34.9667C0.00647194 35.4461 0.20383 35.9037 0.549352 36.2404C0.894874 36.5772 1.36076 36.7659 1.84615 36.7659H30.1538C30.6435 36.7659 31.1131 36.5738 31.4593 36.2318C31.8055 35.8898 32 35.426 32 34.9424V27.6484C31.9902 27.2072 31.8198 26.7842 31.52 26.457Z" fill="#BDBDBD"/>
<path d="M15.9999 17.0213C20.7002 17.0213 24.5105 13.2109 24.5105 8.51064C24.5105 3.81034 20.7002 0 15.9999 0C11.2996 0 7.48926 3.81034 7.48926 8.51064C7.48926 13.2109 11.2996 17.0213 15.9999 17.0213Z" fill="#BDBDBD"/>
</svg>
