<svg width="47" height="48" viewBox="0 0 47 48" fill="none" xmlns="http://www.w3.org/2000/svg">
<path fill-rule="evenodd" clip-rule="evenodd" d="M46.0094 23.9466C46.0094 30.1081 43.5857 36.0172 39.2715 40.374C34.9573 44.7309 29.1059 47.1785 23.0047 47.1785C16.9035 47.1785 11.0521 44.7309 6.73792 40.374C2.4237 36.0172 0 30.1081 0 23.9466C0 17.7851 2.4237 11.8759 6.73792 7.51908C11.0521 3.16225 16.9035 0.7146 23.0047 0.7146C29.1059 0.7146 34.9573 3.16225 39.2715 7.51908C43.5857 11.8759 46.0094 17.7851 46.0094 23.9466ZM25.8803 12.3306C25.8803 13.1008 25.5773 13.8394 25.038 14.384C24.4988 14.9286 23.7673 15.2346 23.0047 15.2346C22.242 15.2346 21.5106 14.9286 20.9713 14.384C20.4321 13.8394 20.1291 13.1008 20.1291 12.3306C20.1291 11.5604 20.4321 10.8218 20.9713 10.2771C21.5106 9.73254 22.242 9.42659 23.0047 9.42659C23.7673 9.42659 24.4988 9.73254 25.038 10.2771C25.5773 10.8218 25.8803 11.5604 25.8803 12.3306ZM20.1291 21.0426C19.3665 21.0426 18.635 21.3485 18.0958 21.8931C17.5565 22.4377 17.2535 23.1764 17.2535 23.9466C17.2535 24.7168 17.5565 25.4554 18.0958 26C18.635 26.5446 19.3665 26.8506 20.1291 26.8506V35.5625C20.1291 36.3327 20.4321 37.0714 20.9713 37.616C21.5106 38.1606 22.242 38.4665 23.0047 38.4665H25.8803C26.6429 38.4665 27.3744 38.1606 27.9136 37.616C28.4529 37.0714 28.7559 36.3327 28.7559 35.5625C28.7559 34.7924 28.4529 34.0537 27.9136 33.5091C27.3744 32.9645 26.6429 32.6586 25.8803 32.6586V23.9466C25.8803 23.1764 25.5773 22.4377 25.038 21.8931C24.4988 21.3485 23.7673 21.0426 23.0047 21.0426H20.1291Z" fill="#D7D7DB"/>
</svg>
