<svg width="36" height="56" viewBox="0 0 36 56" fill="none" xmlns="http://www.w3.org/2000/svg">
<path d="M32.4 26.2369V14.7579C32.4 6.61156 26.64 0.31665 18.72 0.31665H17.64C10.08 0.31665 3.6 6.61156 3.6 14.7579V26.2369H0L0.36 44.7513C0.36 44.7513 0 55.86 18 55.86C36 55.86 36 44.7513 36 44.7513V26.2369H32.4ZM21.6 48.4542H18V41.0484C15.84 41.0484 14.4 39.5673 14.4 37.3456C14.4 35.1238 15.84 33.6427 18 33.6427C20.16 33.6427 21.6 35.1238 21.6 37.3456V48.4542ZM25.2 26.2369H10.8V14.7579C10.8 10.6847 14.04 7.72243 17.64 7.72243H18.72C22.32 7.72243 25.2 10.6847 25.2 14.7579V26.2369Z" fill="#D7D7DB"/>
</svg>
