<svg width="46" height="48" viewBox="0 0 46 48" fill="none" xmlns="http://www.w3.org/2000/svg">
<path d="M41.3677 0.682739C42.6604 0.682739 43.7557 1.13711 44.6534 2.04584C45.5511 2.95457 46 4.02688 46 5.26275V33.179C46 34.4876 45.5511 35.5963 44.6534 36.505C43.7557 37.4137 42.6604 37.8681 41.3677 37.8681H9.15691L0 47.1372V5.26275C0 4.02688 0.448868 2.95457 1.3466 2.04584C2.24434 1.13711 3.33958 0.682739 4.63232 0.682739H41.3677ZM13.7892 28.599V23.91H9.15691V28.599H13.7892ZM13.7892 21.62V16.9309H9.15691V21.62H13.7892ZM13.7892 14.6409V9.95182H9.15691V14.6409H13.7892ZM29.8407 28.599V23.91H18.4215V28.599H29.8407ZM36.7354 21.62V16.9309H18.4215V21.62H36.7354ZM36.7354 14.6409V9.95182H18.4215V14.6409H36.7354Z" fill="#D7D7DB"/>
</svg>
